[Header]
FileType HTR
DataType HTRS
FileVersion 1
NumSegments 36
NumFrames 4
DataFrameRate 120
EulerRotationOrder ZYX
CalibrationUnits mm
RotationUnits Degrees
GlobalAxisofGravity Y
BoneLengthAxis Y
ScaleFactor 1.0
[SegmentNames&Hierarchy]
Hips	GLOBAL
Spine	Hips
Spine1	Spine
Spine2	Spine1
Spine3	Spine2
Neck	Spine3
Head	Neck
HeadEnd	Head
RightShoulder	Spine3
RightArm	RightShoulder
RightForeArm	RightArm
RightForeArmRoll	RightForeArm
RightHand	RightForeArmRoll
RightHandEnd	RightHand
R_FingersEnd	RightHandEnd
RightHandThumb1	RightHand
RightHandThumb2	RightHandThumb1
LeftShoulder	Spine3
LeftArm	LeftShoulder
LeftForeArm	LeftArm
LeftForeArmRoll	LeftForeArm
LeftHand	LeftForeArmRoll
LeftHandEnd	LeftHand
L_FingersEnd	LeftHandEnd
LeftHandThumb1	LeftHand
LeftHandThumb2	LeftHandThumb1
RightUpLeg	Hips
RightLeg	RightUpLeg
RightFoot	RightLeg
RightToeBase	RightFoot
RightToeBaseEnd	RightToeBase
LeftUpLeg	Hips
LeftLeg	LeftUpLeg
LeftFoot	LeftLeg
LeftToeBase	LeftFoot
LeftToeBaseEnd	LeftToeBase
[BasePosition]
Hips	0	0	0	0	0	0	1
Spine	0	0	0	-10	-0	0	1
Spine1	0	0	0	5	0	0	1
Spine2	0	0	0	5	0	0	1
Spine3	0	0	0	0	0	0	1
Neck	0	0	0	10	0	0	1
Head	0	0	0	-10	-0	0	1
HeadEnd	0	0	0	0	0	0	1
RightShoulder	0	0	0	-180	-0	-180	1
RightArm	0	0	0	0	0	0	1
RightForeArm	0	0	0	0	0	0	1
RightForeArmRoll	0	0	0	0	0	0	1
RightHand	0	0	0	0	0	0	1
RightHandEnd	0	0	0	-90	-0	0	1
R_FingersEnd	0	0	0	0	0	0	1
RightHandThumb1	0	0	0	170	-0	-15	1
RightHandThumb2	0	0	0	0	0	0	1
LeftShoulder	0	0	0	0	0	0	1
LeftArm	0	0	0	0	0	0	1
LeftForeArm	0	0	0	0	0	0	1
LeftForeArmRoll	0	0	0	0	0	0	1
LeftHand	0	0	0	0	0	0	1
LeftHandEnd	0	0	0	90	0	0	1
L_FingersEnd	0	0	0	0	0	0	1
LeftHandThumb1	0	0	0	170	-0	-15	1
LeftHandThumb2	0	0	0	0	0	0	1
RightUpLeg	0	0	0	-0	90	0	1
RightLeg	0	0	0	0	0	0	1
RightFoot	0	0	0	0	-0	-70	1
RightToeBase	0	0	0	0	-0	-20	1
RightToeBaseEnd	0	0	0	0	0	0	1
LeftUpLeg	0	0	0	-0	90	0	1
LeftLeg	0	0	0	0	0	0	1
LeftFoot	0	0	0	0	-0	-70	1
LeftToeBase	0	0	0	0	-0	-20	1
LeftToeBaseEnd	0	0	0	0	0	0	1
[Hips]
106	-6.523695946	970.9857788	-21.65763474	-88.8870163	-0.008932316676	0.1529105157	1.0
107	-6.508265018	970.9868164	-21.69496727	-88.88864136	-0.015598814	0.1557154059	1.0
108	-6.490004539	970.994812	-21.73637581	-88.8898468	-0.02182682417	0.1582627147	1.0
109	-6.469884396	971.006958	-21.77945137	-88.89167023	-0.02768266201	0.1599449217	1.0
[Spine]
106	0	44.87670517	67.31505585	-0.2266993374	0.337934345	0.06839950383	1.0
107	0	44.87670517	67.31505585	-0.2315980047	0.3367156982	0.06693759561	1.0
108	0	44.87670517	67.31505585	-0.2357829958	0.3355815113	0.06564132124	1.0
109	0	44.87670517	67.31505585	-0.2392035574	0.334110558	0.06455793977	1.0
[Spine1]
106	0	0	89.75341034	-0.6140427589	0.02143803984	-3.645464312e-005	1.0
107	0	0	89.75341034	-0.6224145889	0.01848481596	-0.001105603762	1.0
108	0	0	89.75341034	-0.6292695403	0.01591389254	-0.001943184412	1.0
109	0	0	89.75341034	-0.634824574	0.01364251599	-0.00261688605	1.0
[Spine2]
106	0	0	89.75341034	1.468788147	0.4553662837	0.3352986872	1.0
107	0	0	89.75341034	1.480063677	0.4588678777	0.3272315264	1.0
108	0	0	89.75341034	1.487883091	0.4613528252	0.3217464089	1.0
109	0	0	89.75341034	1.493383527	0.4631570876	0.3176622093	1.0
[Spine3]
106	0	0	89.75341034	0.1382972896	-0.4176807106	-0.06475935131	1.0
107	0	0	89.75341034	0.1430847943	-0.4132043719	-0.0708097443	1.0
108	0	0	89.75341034	0.1468025893	-0.4095804393	-0.07526031137	1.0
109	0	0	89.75341034	0.1495560855	-0.4067881107	-0.07853183895	1.0
[Neck]
106	0	-33.65752792	235.6027069	-1.044160843	-0.2927509248	-0.1914773881	1.0
107	0	-33.65752792	235.6027069	-1.039860964	-0.2824993432	-0.1869490147	1.0
108	0	-33.65752792	235.6027069	-1.035164595	-0.272493571	-0.1843831539	1.0
109	0	-33.65752792	235.6027069	-1.030947804	-0.2643538415	-0.1827656031	1.0
[Head]
106	0	0	123.4109421	-0.8139599562	-0.2069824934	-0.9777981639	1.0
107	0	0	123.4109421	-0.819253087	-0.2232803106	-0.978177309	1.0
108	0	0	123.4109421	-0.8218560219	-0.2361268103	-0.9822966456	1.0
109	0	0	123.4109421	-0.8204664588	-0.2429177612	-0.9873610735	1.0
[HeadEnd]
106	0	0	145.2883301	0	0	0	1.0
107	0	0	145.2883301	0	0	0	1.0
108	0	0	145.2883301	0	0	0	1.0
109	0	0	145.2883301	0	0	0	1.0
[RightShoulder]
106	-30.74827576	-51.24713135	166.0407104	-4.431724548	-6.140719414	0.9655789733	1.0
107	-30.74827576	-51.24713135	166.0407104	-4.429740906	-6.1405797	0.9572256804	1.0
108	-30.74827576	-51.24713135	166.0407104	-4.428971767	-6.141401291	0.9522002935	1.0
109	-30.74827576	-51.24713135	166.0407104	-4.429941177	-6.142444611	0.9483988881	1.0
[RightArm]
106	152.7164459	0	0	-24.6882782	-69.27539825	4.581389904	1.0
107	152.7164459	0	0	-24.63936806	-69.27574158	4.564483643	1.0
108	152.7164459	0	0	-24.60661888	-69.27416229	4.550045013	1.0
109	152.7164459	0	0	-24.58995438	-69.27262115	4.538225174	1.0
[RightForeArm]
106	297.8946228	0	0	0	0	-31.23537445	1.0
107	297.8946228	0	0	0	0	-31.23547363	1.0
108	297.8946228	0	0	0	0	-31.23441696	1.0
109	297.8946228	0	0	0	0	-31.23254776	1.0
[RightForeArmRoll]
106	122.9768982	0	0	5.062121391	0	0	1.0
107	122.9768982	0	0	5.067389965	0	0	1.0
108	122.9768982	0	0	5.064060211	0	0	1.0
109	122.9768982	0	0	5.049198627	0	0	1.0
[RightHand]
106	127.1009369	0	0	9.042482998e-005	7.285187244	-3.391477585	1.0
107	127.1009369	0	0	6.065519483e-005	7.206656456	-3.376390457	1.0
108	127.1009369	0	0	2.610060983e-005	7.157891273	-3.361487865	1.0
109	127.1009369	0	0	-9.829378769e-007	7.142819405	-3.348063707	1.0
[RightHandEnd]
106	72.05677795	0	0	0	0	0	1.0
107	72.05677795	0	0	0	0	0	1.0
108	72.05677795	0	0	0	0	0	1.0
109	72.05677795	0	0	0	0	0	1.0
[R_FingersEnd]
106	72.05677795	0	0	0	0	0	1.0
107	72.05677795	0	0	0	0	0	1.0
108	72.05677795	0	0	0	0	0	1.0
109	72.05677795	0	0	0	0	0	1.0
[RightHandThumb1]
106	28.82271004	-48.03784943	19.2151413	0	0	0	1.0
107	28.82271004	-48.03784943	19.2151413	0	0	0	1.0
108	28.82271004	-48.03784943	19.2151413	0	0	0	1.0
109	28.82271004	-48.03784943	19.2151413	0	0	0	1.0
[RightHandThumb2]
106	72.05677795	0	0	0	0	0	1.0
107	72.05677795	0	0	0	0	0	1.0
108	72.05677795	0	0	0	0	0	1.0
109	72.05677795	0	0	0	0	0	1.0
[LeftShoulder]
106	30.74827576	-51.24713135	166.0407104	5.497200012	6.061714649	3.005454302	1.0
107	30.74827576	-51.24713135	166.0407104	5.487895966	6.064819336	3.027536631	1.0
108	30.74827576	-51.24713135	166.0407104	5.481048107	6.070868492	3.045130014	1.0
109	30.74827576	-51.24713135	166.0407104	5.477685452	6.078959465	3.059217215	1.0
[LeftArm]
106	152.7164459	0	0	4.111869812	68.82991028	-34.35468674	1.0
107	152.7164459	0	0	4.123062611	68.82775879	-34.34751892	1.0
108	152.7164459	0	0	4.129320145	68.82331848	-34.3442955	1.0
109	152.7164459	0	0	4.12637949	68.81708527	-34.34819794	1.0
[LeftForeArm]
106	297.8946228	0	0	0	0	-19.15820503	1.0
107	297.8946228	0	0	0	0	-19.17180634	1.0
108	297.8946228	0	0	0	0	-19.18257713	1.0
109	297.8946228	0	0	0	0	-19.18969154	1.0
[LeftForeArmRoll]
106	122.9768982	0	0	-4.56644249	0	0	1.0
107	122.9768982	0	0	-4.489897728	0	0	1.0
108	122.9768982	0	0	-4.442312241	0	0	1.0
109	122.9768982	0	0	-4.413002968	0	0	1.0
[LeftHand]
106	127.1009369	0	0	-0.0003648478014	-21.28012276	1.006319404	1.0
107	127.1009369	0	0	-0.0001669571357	-21.2516861	1.054578304	1.0
108	127.1009369	0	0	4.021381028e-005	-21.23665428	1.08217299	1.0
109	127.1009369	0	0	0.0001677554683	-21.22732735	1.098888993	1.0
[LeftHandEnd]
106	72.05677795	0	0	0	0	0	1.0
107	72.05677795	0	0	0	0	0	1.0
108	72.05677795	0	0	0	0	0	1.0
109	72.05677795	0	0	0	0	0	1.0
[L_FingersEnd]
106	72.05677795	0	0	0	0	0	1.0
107	72.05677795	0	0	0	0	0	1.0
108	72.05677795	0	0	0	0	0	1.0
109	72.05677795	0	0	0	0	0	1.0
[LeftHandThumb1]
106	28.82271004	-48.03784943	-19.2151413	0	0	0	1.0
107	28.82271004	-48.03784943	-19.2151413	0	0	0	1.0
108	28.82271004	-48.03784943	-19.2151413	0	0	0	1.0
109	28.82271004	-48.03784943	-19.2151413	0	0	0	1.0
[LeftHandThumb2]
106	72.05677795	0	0	0	0	0	1.0
107	72.05677795	0	0	0	0	0	1.0
108	72.05677795	0	0	0	0	0	1.0
109	72.05677795	0	0	0	0	0	1.0
[RightUpLeg]
106	-91.21989441	0	-26.64850616	9.458117485	4.195981503	-0.8599213958	1.0
107	-91.21989441	0	-26.64850616	9.453957558	4.200634003	-0.8585345745	1.0
108	-91.21989441	0	-26.64850616	9.447305679	4.204657078	-0.8577112556	1.0
109	-91.21989441	0	-26.64850616	9.437937737	4.207067966	-0.8564137816	1.0
[RightLeg]
106	402.8824463	0	0	0	0	14.47282982	1.0
107	402.8824463	0	0	0	0	14.46590805	1.0
108	402.8824463	0	0	0	0	14.4588604	1.0
109	402.8824463	0	0	0	0	14.4522438	1.0
[RightFoot]
106	435.9781189	0	0	4.413481712	-1.840323448	-14.79400063	1.0
107	435.9781189	0	0	4.412977695	-1.841906905	-14.78825474	1.0
108	435.9781189	0	0	4.414159775	-1.841162562	-14.7822876	1.0
109	435.9781189	0	0	4.416181564	-1.837697387	-14.77720928	1.0
[RightToeBase]
106	183.1846619	0	0	0	0	0.9186609387	1.0
107	183.1846619	0	0	0	0	0.9079944491	1.0
108	183.1846619	0	0	0	0	0.8960767984	1.0
109	183.1846619	0	0	0	0	0.8871056437	1.0
[RightToeBaseEnd]
106	73.79586792	0	0	0	0	0	1.0
107	73.79586792	0	0	0	0	0	1.0
108	73.79586792	0	0	0	0	0	1.0
109	73.79586792	0	0	0	0	0	1.0
[LeftUpLeg]
106	91.21989441	0	-26.64850616	0.8340232968	-5.161520958	0.2302627563	1.0
107	91.21989441	0	-26.64850616	0.8116673231	-5.157526016	0.2295416296	1.0
108	91.21989441	0	-26.64850616	0.7883060575	-5.153937817	0.2273512632	1.0
109	91.21989441	0	-26.64850616	0.7690984011	-5.151423454	0.2256985903	1.0
[LeftLeg]
106	402.8824463	0	0	0	0	11.08288765	1.0
107	402.8824463	0	0	0	0	11.08409023	1.0
108	402.8824463	0	0	0	0	11.08677101	1.0
109	402.8824463	0	0	0	0	11.08975124	1.0
[LeftFoot]
106	435.9781189	0	0	-8.02324295	-0.442848146	-12.53682709	1.0
107	435.9781189	0	0	-8.007787704	-0.4320760071	-12.53424072	1.0
108	435.9781189	0	0	-7.992377281	-0.4199688137	-12.53201008	1.0
109	435.9781189	0	0	-7.982307434	-0.4096336067	-12.53022575	1.0
[LeftToeBase]
106	183.1846619	0	0	0	0	0.8161157966	1.0
107	183.1846619	0	0	0	0	0.8141864538	1.0
108	183.1846619	0	0	0	0	0.8117780089	1.0
109	183.1846619	0	0	0	0	0.8096525669	1.0
[LeftToeBaseEnd]
106	73.79586792	0	0	0	0	0	1.0
107	73.79586792	0	0	0	0	0	1.0
108	73.79586792	0	0	0	0	0	1.0
109	73.79586792	0	0	0	0	0	1.0
[EndOfFile]
